<svg xmlns="http://www.w3.org/2000/svg" viewBox="0 0 75.335 21.62">
  <defs>
    <style>
      .cls-1 {
        fill: #918e8e;
      }
    </style>
  </defs>
  <g id="Symbol_8_1" data-name="Symbol 8 – 1" transform="translate(-142 -41)">
    <g id="Group_336" data-name="Group 336" transform="translate(142 41)">
      <path id="Path_88" data-name="Path 88" class="cls-1" d="M4.627,0a.506.506,0,0,1,.337.084c.084.084.168.084.252.168a1.161,1.161,0,0,1,.252.337l6.141,10.768a3.156,3.156,0,0,1,.084-.841c0-.252.084-.5.084-.757L12.871,0H16.32L14.133,17.414H12.114a1.68,1.68,0,0,1-.757-.168,1.428,1.428,0,0,1-.5-.5L4.711,6.057a1.852,1.852,0,0,1-.084.673,1.432,1.432,0,0,1-.084.589l-1.094,10.1H0L2.187,0h2.44Z"/>
      <path id="Path_89" data-name="Path 89" class="cls-1" d="M24.59,14.3h5.889l-.421,3.113H20.3L22.487,0h3.87Z" transform="translate(-3.222)"/>
      <path id="Path_90" data-name="Path 90" class="cls-1" d="M39.127,11.525l-.757,5.889H34.5L36.6,0h5.721a8.73,8.73,0,0,1,2.692.337,5.553,5.553,0,0,1,1.851,1.01,2.92,2.92,0,0,1,1.01,1.6,4.936,4.936,0,0,1,.337,1.935,6.964,6.964,0,0,1-.421,2.692,5.033,5.033,0,0,1-1.346,2.1,5.121,5.121,0,0,1-2.271,1.346,9.605,9.605,0,0,1-3.281.5Zm1.01-8.581-.673,5.721h1.851a3.625,3.625,0,0,0,1.43-.252,3.735,3.735,0,0,0,.925-.673,2.607,2.607,0,0,0,.5-1.094A6.538,6.538,0,0,0,44.343,5.3a3.024,3.024,0,0,0-.168-.925,3.41,3.41,0,0,0-.421-.757,1.308,1.308,0,0,0-.673-.5,3.615,3.615,0,0,0-1.01-.168Z" transform="translate(-5.477)"/>
    </g>
    <g id="Group_337" data-name="Group 337" transform="translate(187.26 41.662)">
      <path id="Path_91" data-name="Path 91" class="cls-1" d="M56.576,17.42H53.8L56.24,1.1h2.776Z" transform="translate(-53.8 -0.837)"/>
      <path id="Path_92" data-name="Path 92" class="cls-1" d="M63.676,17.5H60.9l1.514-11.02H65.19ZM62.835,3.2A1.772,1.772,0,0,1,63.256,2.1a1.356,1.356,0,0,1,1.094-.5,1.292,1.292,0,0,1,1.094.421,1.292,1.292,0,0,1,.421,1.094,1.6,1.6,0,0,1-.421,1.094,1.6,1.6,0,0,1-1.094.421,1.292,1.292,0,0,1-1.094-.421A1.26,1.26,0,0,1,62.835,3.2Z" transform="translate(-54.927 -0.916)"/>
      <path id="Path_93" data-name="Path 93" class="cls-1" d="M68.2,21.745,70.051,8.453H68.2l.337-2.1h1.851L70.556,5a4.857,4.857,0,0,1,1.6-3.113A4.334,4.334,0,0,1,75.435.8a6.8,6.8,0,0,1,1.683.252l-.337,2.187a4.1,4.1,0,0,0-1.01-.084,2.426,2.426,0,0,0-1.6.5,2.663,2.663,0,0,0-.841,1.514L73.163,6.35h2.524l-.337,2.1H72.827L70.976,21.745Z" transform="translate(-56.086 -0.787)"/>
      <path id="Path_94" data-name="Path 94" class="cls-1" d="M81.742,20.224a5.435,5.435,0,0,1-2.86-.841A4.134,4.134,0,0,1,77.115,17.2a6.052,6.052,0,0,1-.421-3.029v-.5a9.229,9.229,0,0,1,1.094-3.449A6.78,6.78,0,0,1,80.06,7.857,6.138,6.138,0,0,1,83,7.1a3.9,3.9,0,0,1,3.533,1.767,6.786,6.786,0,0,1,.925,4.459l-.084,1.262H79.471a3.779,3.779,0,0,0,.589,2.44,2.393,2.393,0,0,0,1.935.925,4.582,4.582,0,0,0,3.281-1.514l1.43,1.43a5.393,5.393,0,0,1-2.1,1.767A7.527,7.527,0,0,1,81.742,20.224ZM82.92,9.371c-1.43-.084-2.524,1.01-3.281,3.113h5.216l.084-.252a2.05,2.05,0,0,0,0-1.01,2.286,2.286,0,0,0-.673-1.346A1.776,1.776,0,0,0,82.92,9.371Z" transform="translate(-57.43 -1.789)"/>
    </g>
  </g>
</svg>
