<svg xmlns="http://www.w3.org/2000/svg" viewBox="0 0 200.696 57.597">
  <defs>
    <style>
      .cls-1 {
        fill: #a5a5a5;
      }

      .cls-2 {
        fill: #63ee83;
      }
    </style>
  </defs>
  <g id="logo" transform="translate(-134 -217)">
    <g id="Group_336" data-name="Group 336" transform="translate(134 217)">
      <path id="Path_88" data-name="Path 88" class="cls-1" d="M12.326,0a1.347,1.347,0,0,1,.9.224c.224.224.448.224.672.448a3.094,3.094,0,0,1,.672.9l16.36,28.687a8.407,8.407,0,0,1,.224-2.241c0-.672.224-1.345.224-2.017L34.29,0h9.189L37.651,46.392H32.273a4.475,4.475,0,0,1-2.017-.448A3.805,3.805,0,0,1,28.911,44.6L12.55,16.136a4.935,4.935,0,0,1-.224,1.793A3.814,3.814,0,0,1,12.1,19.5L9.189,46.392H0L5.827,0h6.5Z"/>
      <path id="Path_89" data-name="Path 89" class="cls-1" d="M31.73,38.1H47.418L46.3,46.392h-26L26.127,0H36.436Z" transform="translate(25.195)"/>
      <path id="Path_90" data-name="Path 90" class="cls-1" d="M46.826,30.7,44.809,46.392H34.5L40.1,0h15.24a23.256,23.256,0,0,1,7.172.9,14.794,14.794,0,0,1,4.931,2.689,7.778,7.778,0,0,1,2.689,4.258,13.149,13.149,0,0,1,.9,5.155A18.554,18.554,0,0,1,69.91,20.17a13.408,13.408,0,0,1-3.586,5.6,13.643,13.643,0,0,1-6.051,3.586,25.588,25.588,0,0,1-8.74,1.345Zm2.689-22.86-1.793,15.24h4.931a9.658,9.658,0,0,0,3.81-.672,9.95,9.95,0,0,0,2.465-1.793,6.946,6.946,0,0,0,1.345-2.913,17.418,17.418,0,0,0,.448-3.586,8.057,8.057,0,0,0-.448-2.465,9.084,9.084,0,0,0-1.121-2.017A3.485,3.485,0,0,0,57.36,8.292a9.631,9.631,0,0,0-2.689-.448Z" transform="translate(42.82)"/>
    </g>
    <g id="Group_337" data-name="Group 337" transform="translate(254.574 218.765)">
      <path id="Path_91" data-name="Path 91" class="cls-2" d="M61.2,44.578H53.8L60.3,1.1h7.4Z" transform="translate(-53.8 -0.399)"/>
      <path id="Path_92" data-name="Path 92" class="cls-2" d="M68.3,43.958H60.9L64.934,14.6h7.4Zm-2.241-38.1a4.72,4.72,0,0,1,1.121-2.913A3.614,3.614,0,0,1,70.089,1.6,3.441,3.441,0,0,1,73,2.721a3.441,3.441,0,0,1,1.121,2.913A4.26,4.26,0,0,1,73,8.548a4.26,4.26,0,0,1-2.913,1.121,3.441,3.441,0,0,1-2.913-1.121A3.358,3.358,0,0,1,66.055,5.858Z" transform="translate(-44.988 0.221)"/>
      <path id="Path_93" data-name="Path 93" class="cls-2" d="M68.2,56.62l4.931-35.41H68.2l.9-5.6h4.931l.448-3.586a12.938,12.938,0,0,1,4.258-8.292A11.547,11.547,0,0,1,87.474.816a18.116,18.116,0,0,1,4.482.672l-.9,5.827a10.911,10.911,0,0,0-2.689-.224,6.462,6.462,0,0,0-4.258,1.345,7.094,7.094,0,0,0-2.241,4.034l-.448,3.138h6.723l-.9,5.6H80.526L75.6,56.62Z" transform="translate(-35.927 -0.787)"/>
      <path id="Path_94" data-name="Path 94" class="cls-2" d="M90.19,42.062a14.48,14.48,0,0,1-7.62-2.241,11.013,11.013,0,0,1-4.706-5.827,16.123,16.123,0,0,1-1.121-8.068V24.581a24.587,24.587,0,0,1,2.914-9.189,18.062,18.062,0,0,1,6.051-6.275A16.352,16.352,0,0,1,93.552,7.1q6.387,0,9.413,4.706c2.017,3.138,2.913,6.948,2.465,11.878l-.224,3.362H84.139a10.068,10.068,0,0,0,1.569,6.5,6.375,6.375,0,0,0,5.155,2.465q4.706,0,8.74-4.034l3.81,3.81a14.366,14.366,0,0,1-5.6,4.706A20.052,20.052,0,0,1,90.19,42.062Zm3.138-28.911c-3.81-.224-6.723,2.689-8.741,8.292h13.9l.224-.672a5.463,5.463,0,0,0,0-2.689A6.091,6.091,0,0,0,96.914,14.5,4.732,4.732,0,0,0,93.328,13.151Z" transform="translate(-25.421 7.048)"/>
    </g>
  </g>
</svg>
